<svg width="57" height="46" viewBox="0 0 57 46" fill="none" xmlns="http://www.w3.org/2000/svg">
<path d="M0.703734 37.3739C1.7273 36.9301 2.72955 36.4303 3.68914 35.8831C4.25637 35.5599 4.46535 34.8361 4.14122 34.2673C1.53538 29.7044 0.0767977 23.9781 0.0767977 17.5969C0.0767977 6.41139 5.42495 0 13.5751 0C21.7253 0 26.4508 5.71768 26.4508 15.5847C26.4508 22.1124 24.2586 28.4764 20.3691 33.7761C19.8871 34.4311 20.1942 35.3747 20.9661 35.6117C22.1006 35.9607 23.3161 36.1373 24.587 36.1373H25.5295C26.1778 36.1373 26.7024 36.6673 26.7024 37.3222V44.8151C26.7024 45.47 26.1778 46 25.5295 46H24.0283C19.5118 46 15.4431 44.772 12.0184 42.6306C11.6346 42.3893 11.1612 42.385 10.7774 42.622C8.80699 43.8327 6.67882 44.8453 4.42697 45.6596C3.864 45.8621 3.24133 45.5907 2.98544 45.0478L0.115182 38.9682C-0.170565 38.3649 0.0938572 37.6368 0.703734 37.3739ZM11.6517 25.0811C11.9715 26.1023 13.3619 26.2402 13.8267 25.275C15.2768 22.2718 16.0658 19.0015 16.0658 15.6493C16.0658 11.8145 15.0721 9.86699 13.3917 9.86699C11.5877 9.86699 10.466 12.0041 10.466 16.9075C10.466 19.8503 10.8797 22.6165 11.6517 25.0811Z" fill="white"/>
<path d="M31.0013 37.3739C32.0249 36.9301 33.0272 36.4303 33.9868 35.8831C34.554 35.5599 34.763 34.8361 34.4388 34.2673C31.8287 29.7044 30.3701 23.9781 30.3701 17.5969C30.3701 6.41139 35.7226 0 43.8727 0C52.0229 0 56.7484 5.71768 56.7484 15.5847C56.7484 22.1124 54.5562 28.4764 50.6667 33.7761C50.1847 34.4311 50.4918 35.3747 51.2638 35.6117C52.3982 35.9607 53.6137 36.1373 54.8846 36.1373H55.8272C56.4754 36.1373 57 36.6673 57 37.3222V44.8151C57 45.47 56.4754 46 55.8272 46H54.3259C49.8094 46 45.7407 44.772 42.3161 42.6306C41.9322 42.3893 41.4588 42.385 41.075 42.622C39.1046 43.8327 36.9764 44.8453 34.7246 45.6596C34.1616 45.8621 33.5389 45.5907 33.2831 45.0478L30.4128 38.9682C30.127 38.3649 30.3915 37.6368 31.0013 37.3739ZM41.945 25.0811C42.2649 26.1023 43.6552 26.2402 44.1201 25.275C45.5701 22.2718 46.3591 19.0015 46.3591 15.6493C46.3591 11.8145 45.3654 9.86699 43.6851 9.86699C41.881 9.86699 40.7594 12.0041 40.7594 16.9075C40.7594 19.8503 41.1731 22.6165 41.945 25.0811Z" fill="white"/>
</svg>
